<svg width="1250" height="1250" viewBox="0 0 1250 1250" fill="none" xmlns="http://www.w3.org/2000/svg">
<path d="M1131.65 503.695H203.55V711.995H1131.65V503.695Z" fill="#D6DCFC" stroke="#2E263A" stroke-width="1.5" stroke-miterlimit="10"/>
<path d="M1079.4 449.898H1025.55V503.748H1079.4V449.898Z" fill="#2E263A" stroke="#2E263A" stroke-width="1.5" stroke-miterlimit="10"/>
<path d="M1040.05 489.202L1047.85 487.302L1065.45 469.702L1059.6 463.852L1042 481.452L1040.05 489.202Z" stroke="white" stroke-width="1.5" stroke-miterlimit="10"/>
<path d="M1042 481.453L1047.85 487.303" stroke="white" stroke-width="1.5" stroke-miterlimit="10"/>
<path d="M1055.6 467.852L1061.45 473.702" stroke="white" stroke-width="1.5" stroke-miterlimit="10"/>
<path d="M1079.4 389.695L1084.25 402.395L1096.95 407.245L1084.25 412.095L1079.4 424.795L1074.55 412.095L1061.85 407.245L1074.55 402.395L1079.4 389.695Z" fill="#2E263A"/>
<path d="M991 442.641L994.9 452.841L1005.05 456.691L994.9 460.591L991 470.741L987.1 460.591L976.95 456.691L987.1 452.841L991 442.641Z" fill="#2E263A"/>
<path d="M1104.85 473.695L1107.95 481.795L1116.1 484.945L1107.95 488.045L1104.85 496.145L1101.75 488.045L1093.6 484.945L1101.75 481.795L1104.85 473.695Z" fill="#2E263A"/>
<path fill-rule="evenodd" clip-rule="evenodd" d="M200.75 158.148V335.898H263.3L289.6 362.198L315.95 335.898H378.5V158.148H200.75Z" fill="#2E263A" stroke="#2E263A" stroke-width="1.5" stroke-miterlimit="10"/>
<path fill-rule="evenodd" clip-rule="evenodd" d="M335.1 222.703L307.85 275.953H282.25L293.65 253.903H293.15C283.75 266.103 269.7 274.153 249.7 275.953V254.203C249.7 254.203 262.5 253.453 270 245.553H249.7V222.703H272.55V241.503H273.05L282.4 222.703H299.65V241.353H300.15L309.85 222.703H335.1Z" fill="#EFA9FB"/>
<path d="M781.75 172.688H727.9V226.538H781.75V172.688Z" fill="#2E263A" stroke="#2E263A" stroke-width="1.5" stroke-miterlimit="10"/>
<path d="M742.351 211.991L750.151 210.091L767.751 192.491L761.901 186.641L744.301 204.241L742.351 211.991Z" stroke="white" stroke-width="1.5" stroke-miterlimit="10"/>
<path d="M744.301 204.242L750.151 210.092" stroke="white" stroke-width="1.5" stroke-miterlimit="10"/>
<path d="M757.9 190.641L763.75 196.491" stroke="white" stroke-width="1.5" stroke-miterlimit="10"/>
<path d="M799.249 131.938L804.149 144.588L816.849 149.488L804.149 154.338L799.249 167.038L794.399 154.338L781.699 149.488L794.399 144.588L799.249 131.938Z" fill="#2E263A"/>
<path d="M687.9 179.484L691.8 189.634L701.95 193.534L691.8 197.434L687.9 207.584L684 197.434L673.85 193.534L684 189.634L687.9 179.484Z" fill="#2E263A"/>
<path d="M781.75 226.492H610V398.242H781.75V226.492Z" fill="#B2A1F9" stroke="#2E263A" stroke-width="1.5" stroke-miterlimit="10"/>
<path d="M663.8 291.688C663.8 282.438 678.15 274.938 695.85 274.938C713.55 274.938 727.9 282.438 727.9 291.688" stroke="#2E263A" stroke-width="1.5" stroke-miterlimit="10"/>
<path d="M695.85 301.787C679.45 301.787 670.5 295.137 670.5 291.737C670.5 288.337 679.45 281.688 695.85 281.688C712.25 281.688 721.2 288.337 721.2 291.737C721.2 295.137 712.25 301.787 695.85 301.787Z" fill="#2E263A"/>
<path d="M727.9 291.688V333.037C727.9 342.287 713.55 349.787 695.85 349.787C678.15 349.787 663.8 342.287 663.8 333.037V291.688" stroke="#2E263A" stroke-width="1.5" stroke-miterlimit="10"/>
<path d="M727.9 308.141C727.9 317.391 713.55 324.891 695.85 324.891C678.15 324.891 663.8 317.391 663.8 308.141" stroke="#2E263A" stroke-width="1.5" stroke-miterlimit="10"/>
<path d="M762.45 878.5H708.6V932.35H762.45V878.5Z" fill="#2E263A" stroke="#2E263A" stroke-width="1.5" stroke-miterlimit="10"/>
<path d="M723.1 917.845L730.9 915.945L748.5 898.345L742.6 892.445L725 910.045L723.1 917.845Z" stroke="white" stroke-width="1.5" stroke-miterlimit="10"/>
<path d="M725 910.047L730.9 915.947" stroke="white" stroke-width="1.5" stroke-miterlimit="10"/>
<path d="M738.6 896.445L744.5 902.345" stroke="white" stroke-width="1.5" stroke-miterlimit="10"/>
<path d="M789.65 853.5L794.5 866.2L807.2 871.05L794.5 875.9L789.65 888.6L784.8 875.9L772.1 871.05L784.8 866.2L789.65 853.5Z" fill="#2E263A"/>
<path d="M678.6 892.453L682.5 902.603L692.65 906.503L682.5 910.403L678.6 920.553L674.75 910.403L664.6 906.503L674.75 902.603L678.6 892.453Z" fill="#2E263A"/>
<path d="M819.9 932.352H253.55V1073.15H819.9V932.352Z" fill="#F5EEFE" stroke="#2E263A" stroke-width="1.5" stroke-miterlimit="10"/>
<path d="M1154.8 801.898H1100.95V855.748H1154.8V801.898Z" fill="#2E263A" stroke="#2E263A" stroke-width="1.5" stroke-miterlimit="10"/>
<path d="M1115.45 841.248L1123.25 839.348L1140.85 821.748L1134.95 815.898L1117.35 833.498L1115.45 841.248Z" stroke="white" stroke-width="1.5" stroke-miterlimit="10"/>
<path d="M1117.35 833.5L1123.25 839.35" stroke="white" stroke-width="1.5" stroke-miterlimit="10"/>
<path d="M1130.95 819.844L1136.85 825.744" stroke="white" stroke-width="1.5" stroke-miterlimit="10"/>
<path d="M1162.1 750.148L1166.95 762.848L1179.65 767.748L1166.95 772.598L1162.1 785.298L1157.2 772.598L1144.55 767.748L1157.2 762.848L1162.1 750.148Z" fill="#2E263A"/>
<path d="M1072.15 815.898L1076.05 826.048L1086.2 829.898L1076.05 833.798L1072.15 843.948L1068.25 833.798L1058.1 829.898L1068.25 826.048L1072.15 815.898Z" fill="#2E263A"/>
<path d="M1154.8 855.75H1014.3V996.25H1154.8V855.75Z" fill="#B2A1F9" stroke="#2E263A" stroke-width="1.5" stroke-miterlimit="10"/>
<path d="M1107.8 902.75H1061.3V949.25H1107.8V902.75Z" stroke="#2E263A" stroke-width="1.5" stroke-miterlimit="10"/>
<path d="M1061.3 949.25L1084.55 926L1107.8 949.25" stroke="#2E263A" stroke-width="1.5" stroke-miterlimit="10"/>
<path d="M1076.25 922.6C1078.9 922.6 1081.05 920.451 1081.05 917.8C1081.05 915.149 1078.9 913 1076.25 913C1073.6 913 1071.45 915.149 1071.45 917.8C1071.45 920.451 1073.6 922.6 1076.25 922.6Z" fill="#2E263A"/>
<path d="M170.05 542.11C163.4 539.41 156.6 536.91 149.6 534.86C138.75 531.81 126.95 529.26 115.2 531.11C99.3001 533.51 90.7501 546.11 93.0001 561.96C95.2501 577.36 102.45 589.96 110.25 602.61C149.25 660.61 203.65 706.51 260.7 745.81C261 746.01 261.4 745.91 261.6 745.61C261.8 745.31 261.7 744.91 261.45 744.71C239.35 728.16 218.35 710.16 198.5 691.11C168.5 662.06 112.45 601.86 107.3 560.56C106.7 552.96 109.2 547.66 117.5 547.01C126.4 546.26 135.4 548.81 144.2 551.76C150.35 553.91 156.45 556.51 162.45 559.31C174.2 564.26 181.65 547.46 170 542.11H170.05Z" fill="#2E263A" stroke="#2E263A" stroke-width="1.5" stroke-miterlimit="10"/>
<path d="M115.2 531.11C126.95 529.26 138.75 531.81 149.6 534.86C156.65 536.91 163.4 539.41 170.05 542.11C181.65 547.46 174.25 564.26 162.5 559.31C156.5 556.46 150.4 553.86 144.25 551.76C135.45 548.81 126.45 546.26 117.55 547.01C115.8 547.16 114.3 547.51 113.05 548.06C97.4499 552.36 92.0499 562.31 101.5 587.31C97.4999 579.46 94.3999 571.26 93.0499 562.01C90.7999 546.11 99.3499 533.56 115.25 531.16L115.2 531.11Z" fill="#EFA9FB" stroke="#2E263A" stroke-width="1.5" stroke-miterlimit="10"/>
<path d="M327.55 794.96C334.2 797.66 341 800.16 348 802.21C358.85 805.26 370.65 807.81 382.4 805.96C398.3 803.56 406.85 790.96 404.6 775.11C402.35 759.71 395.15 747.11 387.35 734.46C348.35 676.46 293.95 630.56 236.9 591.26C236.6 591.06 236.2 591.16 236 591.46C235.8 591.76 235.9 592.16 236.15 592.36C258.25 608.91 279.25 626.91 299.1 645.96C329.1 675.01 385.15 735.21 390.3 776.51C390.9 784.11 388.4 789.41 380.1 790.06C371.2 790.81 362.2 788.26 353.4 785.31C347.25 783.16 341.15 780.56 335.15 777.76C323.4 772.81 315.95 789.61 327.6 794.96H327.55Z" fill="#EFA9FB" stroke="#2E263A" stroke-width="1.5" stroke-miterlimit="10"/>
<path d="M335.1 777.759C341.1 780.609 347.2 783.209 353.35 785.309C362.15 788.259 371.15 790.809 380.05 790.059C388.35 789.359 390.85 784.059 390.25 776.509C389.95 774.209 389.5 771.809 388.9 769.359L389.15 770.409C397.1 798.059 382.7 805.709 376.8 806.509C366.9 806.959 357.1 804.759 347.95 802.209C340.9 800.159 334.15 797.659 327.5 794.959C315.9 789.609 323.3 772.809 335.05 777.759H335.1Z" fill="#2E263A" stroke="#2E263A" stroke-width="1.5" stroke-miterlimit="10"/>
<path d="M56.9498 785.102L98.8998 734.202L51.5498 693.952L141.45 687.152L231.35 680.352L240.65 771.452L249.9 862.552L202.55 822.302L160.6 873.202L56.9498 785.102Z" fill="#977FF8" stroke="#2E263A" stroke-width="1.5" stroke-miterlimit="10"/>
<path d="M1014.3 86.9453L1020.7 145.495L1079.25 151.895L1020.7 158.295L1014.3 216.845L1007.9 158.295L949.3 151.895L1007.9 145.495L1014.3 86.9453Z" fill="#2E263A"/>
<path d="M157.4 1073.14L161.95 1114.74L203.55 1119.29L161.95 1123.84L157.4 1165.49L152.85 1123.84L111.2 1119.29L152.85 1114.74L157.4 1073.14Z" fill="#2E263A"/>
<path d="M955.7 805.844L924.15 809.244L920.7 840.794L917.25 809.244L885.75 805.844L917.25 802.394L920.7 770.844L924.15 802.394L955.7 805.844Z" fill="#2E263A"/>
<path d="M477.75 354.648C483.825 354.648 488.75 349.724 488.75 343.648C488.75 337.573 483.825 332.648 477.75 332.648C471.675 332.648 466.75 337.573 466.75 343.648C466.75 349.724 471.675 354.648 477.75 354.648Z" stroke="#2E263A" stroke-width="1.5" stroke-miterlimit="10"/>
<path d="M604.2 801C610.275 801 615.2 796.075 615.2 790C615.2 783.925 610.275 779 604.2 779C598.125 779 593.2 783.925 593.2 790C593.2 796.075 598.125 801 604.2 801Z" stroke="#2E263A" stroke-width="1.5" stroke-miterlimit="10"/>
<path d="M944.25 345.55C948.751 345.55 952.4 341.901 952.4 337.4C952.4 332.899 948.751 329.25 944.25 329.25C939.749 329.25 936.1 332.899 936.1 337.4C936.1 341.901 939.749 345.55 944.25 345.55Z" stroke="#2E263A" stroke-width="1.5" stroke-miterlimit="10"/>
<path d="M1044.9 1106.14C1047.88 1106.14 1050.3 1103.73 1050.3 1100.74C1050.3 1097.76 1047.88 1095.34 1044.9 1095.34C1041.92 1095.34 1039.5 1097.76 1039.5 1100.74C1039.5 1103.73 1041.92 1106.14 1044.9 1106.14Z" stroke="#2E263A" stroke-width="1.5" stroke-miterlimit="10"/>
<path d="M321.7 1157.75C324.682 1157.75 327.1 1155.34 327.1 1152.35C327.1 1149.37 324.682 1146.95 321.7 1146.95C318.717 1146.95 316.3 1149.37 316.3 1152.35C316.3 1155.34 318.717 1157.75 321.7 1157.75Z" stroke="#2E263A" stroke-width="1.5" stroke-miterlimit="10"/>
<path d="M92.65 137.347C95.6323 137.347 98.05 134.929 98.05 131.947C98.05 128.965 95.6323 126.547 92.65 126.547C89.6677 126.547 87.25 128.965 87.25 131.947C87.25 134.929 89.6677 137.347 92.65 137.347Z" stroke="#2E263A" stroke-width="1.5" stroke-miterlimit="10"/>
<path d="M139.65 415.003C142.632 415.003 145.05 412.585 145.05 409.603C145.05 406.621 142.632 404.203 139.65 404.203C136.668 404.203 134.25 406.621 134.25 409.603C134.25 412.585 136.668 415.003 139.65 415.003Z" stroke="#2E263A" stroke-width="1.5" stroke-miterlimit="10"/>
<path d="M623.2 65.9484C626.182 65.9484 628.6 63.5308 628.6 60.5484C628.6 57.5661 626.182 55.1484 623.2 55.1484C620.217 55.1484 617.8 57.5661 617.8 60.5484C617.8 63.5308 620.217 65.9484 623.2 65.9484Z" stroke="#2E263A" stroke-width="1.5" stroke-miterlimit="10"/>
<path d="M1179.65 254.753C1182.63 254.753 1185.05 252.335 1185.05 249.353C1185.05 246.371 1182.63 243.953 1179.65 243.953C1176.67 243.953 1174.25 246.371 1174.25 249.353C1174.25 252.335 1176.67 254.753 1179.65 254.753Z" stroke="#2E263A" stroke-width="1.5" stroke-miterlimit="10"/>
<path d="M274.024 604C271.848 604 267.88 604.32 265.128 604.32C264.488 604.32 264.232 604.192 264.232 603.744C264.232 603.36 264.488 603.232 265.064 603.232C269.288 603.232 271.656 602.208 271.656 596.704V560.096C271.72 554.592 269.288 553.568 265.064 553.568C264.488 553.568 264.232 553.44 264.232 553.056C264.296 552.608 264.488 552.48 265.128 552.48C267.88 552.48 271.912 552.8 274.024 552.8H284.904C294.248 552.8 300.456 556.896 300.456 565.472C300.456 572.576 295.08 576.672 290.92 577.312C290.536 577.376 290.344 577.44 290.344 577.696C290.344 577.888 290.536 578.016 290.92 578.016C297.64 578.592 302.824 583.328 302.824 590.24C302.824 600.352 294.504 604 284.328 604H274.024ZM278.76 598.816C278.76 602.464 280.36 602.976 283.112 602.976C289.448 602.976 295.656 599.968 295.656 590.304C295.656 581.472 288.552 578.016 283.624 578.016C279.976 578.016 278.76 578.528 278.76 580.832V598.816ZM278.76 574.688C278.76 576.736 279.976 577.312 283.56 577.312C288.808 577.312 293.48 573.152 293.48 565.728C293.48 558.432 288.744 553.824 283.112 553.824C280.168 553.824 278.76 554.336 278.76 557.408V574.688ZM311.219 560.096C311.283 554.592 308.851 553.568 304.627 553.568C304.05 553.568 303.794 553.44 303.794 553.056C303.858 552.608 304.05 552.48 304.691 552.48C307.443 552.48 311.475 552.8 313.587 552.8H316.147C318.259 552.8 322.291 552.48 325.043 552.48C325.619 552.48 325.875 552.608 325.875 553.056C325.875 553.44 325.619 553.568 325.043 553.568C320.883 553.568 318.451 554.592 318.451 560.096V596.704C318.451 602.208 320.819 603.232 325.043 603.232C325.619 603.232 325.875 603.36 325.875 603.744C325.875 604.192 325.619 604.32 324.979 604.32C322.227 604.32 318.259 604 316.083 604H313.587C311.411 604 307.443 604.32 304.691 604.32C304.05 604.32 303.794 604.192 303.794 603.744C303.794 603.36 304.05 603.232 304.627 603.232C308.851 603.232 311.219 602.208 311.219 596.704V560.096ZM344.901 604C342.405 604 337.605 604.32 334.341 604.32C333.637 604.32 333.317 604.192 333.317 603.744C333.317 603.36 333.637 603.232 334.341 603.232C339.269 603.232 342.149 602.208 342.149 596.704V555.872C342.149 554.528 341.445 553.76 340.229 553.76H336.837C332.229 553.76 329.861 559.008 328.581 567.008C328.517 567.648 328.389 568.032 327.941 568.032C327.493 568.032 327.429 567.648 327.493 567.008C327.493 565.28 327.685 562.592 327.685 560.032C327.685 557.088 327.237 555.168 327.237 554.016C327.237 552.992 327.493 552.48 328.325 552.48C330.309 552.48 332.613 552.8 335.557 552.8H355.973C358.917 552.8 361.221 552.48 363.269 552.48C364.037 552.48 364.357 552.992 364.357 554.016C364.357 555.168 363.845 557.088 363.845 560.032C363.845 562.592 364.037 565.28 364.037 567.008C364.101 567.648 364.037 568.032 363.589 568.032C363.205 568.032 363.077 567.712 362.949 567.008C361.669 559.008 359.365 553.76 354.693 553.76H351.301C350.085 553.76 349.381 554.528 349.381 555.872V596.704C349.317 602.208 352.197 603.232 357.189 603.232C357.893 603.232 358.149 603.36 358.149 603.744C358.149 604.192 357.893 604.32 357.125 604.32C353.861 604.32 349.125 604 346.565 604H344.901ZM382.651 605.024C379.771 605.024 376.507 604.448 374.715 604.448C372.987 604.448 371.707 604.832 370.939 604.832C370.555 604.832 370.299 604.64 370.299 603.936C370.363 599.84 368.507 592.544 368.251 586.464C368.251 586.144 368.443 585.888 368.699 585.888C369.019 585.888 369.275 586.08 369.403 586.528C372.283 599.072 375.035 603.808 383.931 603.808C389.499 603.808 391.419 598.88 391.419 595.168C391.419 588.768 385.915 584.416 380.667 580.448C374.267 575.584 368.891 571.36 368.891 564.384C368.891 556.384 374.395 551.776 381.627 551.776C385.467 551.776 387.579 552.352 389.563 552.352C390.971 552.352 392.187 551.968 392.891 551.968C393.339 551.968 393.595 552.096 393.595 552.928C393.595 557.6 394.427 564.448 394.683 567.84C394.747 568.544 394.619 568.928 394.299 568.928C393.915 568.928 393.723 568.608 393.595 567.968C391.547 556.64 389.179 552.992 381.051 552.992C376.123 552.992 373.819 556.768 373.819 560.864C373.819 566.112 378.491 569.888 384.443 574.368C391.099 579.296 396.347 583.712 396.347 591.584C396.347 599.648 390.907 605.024 382.651 605.024ZM421.149 604C418.973 604 415.005 604.32 412.253 604.32C411.613 604.32 411.357 604.192 411.357 603.744C411.357 603.36 411.613 603.232 412.189 603.232C416.413 603.232 418.781 602.208 418.781 596.704V560.096C418.845 554.592 416.413 553.568 412.189 553.568C411.613 553.568 411.357 553.44 411.357 553.056C411.421 552.608 411.613 552.48 412.253 552.48C415.005 552.48 419.037 552.8 421.149 552.8H430.877C442.077 552.8 448.861 557.344 448.861 567.264C448.861 577.376 441.821 581.984 433.821 581.984C432.093 581.984 430.109 581.664 428.509 581.408C426.909 581.152 426.013 582.112 426.013 583.776V596.704C426.013 602.208 428.701 603.232 433.309 603.232C434.013 603.232 434.269 603.36 434.269 603.744C434.269 604.192 434.013 604.32 433.309 604.32C430.237 604.32 425.757 604 423.389 604H421.149ZM426.013 575.904C426.013 579.488 429.277 581.088 432.605 581.088C438.301 581.088 441.693 574.432 441.693 567.264C441.693 559.328 437.277 553.824 430.749 553.824C427.677 553.824 426.013 554.4 426.013 557.856V575.904ZM462.863 596.704C462.863 602.208 465.295 603.232 468.878 603.232C469.455 603.232 469.711 603.36 469.711 603.744C469.711 604.128 469.455 604.32 468.815 604.32C466.703 604.32 463.695 604 461.519 604H458.127C455.823 604 453.007 604.32 450.383 604.32C449.678 604.32 449.422 604.192 449.422 603.744C449.422 603.36 449.678 603.232 450.319 603.232C454.543 603.232 456.655 602.208 456.655 596.704L456.719 576.928C456.719 573.024 455.759 572.704 454.671 572.704C453.007 572.704 451.151 573.088 450.511 573.152C449.934 573.216 449.742 573.088 449.742 572.64C449.742 572.32 449.998 572.192 450.639 572.064C454.415 571.424 460.367 568.864 462.287 568.864C462.927 568.864 463.375 569.312 463.375 570.272C463.375 574.88 462.863 581.216 462.863 586.848V596.704ZM454.991 558.752C454.991 556.384 456.591 554.848 458.959 554.848C461.391 554.848 463.055 556.384 463.055 558.752C463.055 560.992 461.391 562.528 458.959 562.528C456.591 562.528 454.991 560.992 454.991 558.752ZM481.419 596.704C481.419 602.208 483.723 603.232 487.115 603.232C487.755 603.232 487.947 603.36 487.947 603.744C487.947 604.128 487.755 604.32 487.115 604.32C485.067 604.32 482.123 604 480.075 604H476.555C474.379 604 471.627 604.32 469.067 604.32C468.427 604.32 468.171 604.192 468.171 603.744C468.171 603.36 468.427 603.232 469.067 603.232C473.099 603.232 475.147 602.208 475.211 596.704V558.944C475.211 555.04 474.251 554.72 473.163 554.72C471.499 554.72 469.707 555.04 469.003 555.104C468.427 555.168 468.235 555.04 468.235 554.656C468.235 554.336 468.491 554.144 469.131 554.016C472.907 553.376 478.859 550.88 480.779 550.88C481.547 550.88 481.867 551.328 481.867 552.032C481.867 557.984 481.419 564.832 481.419 573.472V596.704ZM495.521 605.024C491.169 605.024 488.417 601.888 488.417 597.472C488.417 591.072 495.393 587.296 502.369 584.224C503.905 583.52 504.993 581.92 504.993 580.256V579.232C504.993 572.256 502.817 570.272 499.809 570.272C497.185 570.272 495.777 571.616 495.777 574.176C495.777 576.096 496.737 577.248 496.737 579.296C496.737 581.088 495.585 582.368 493.537 582.368C491.233 582.368 489.889 580.384 489.889 578.016C489.889 572.896 494.625 568.864 501.089 568.864C507.297 568.864 511.457 572.128 511.457 579.296C511.457 585.568 511.137 591.904 511.137 598.176C511.137 600.928 512.097 601.696 513.249 601.696C514.273 601.696 516.001 600.416 517.217 595.616C517.281 595.104 517.409 594.976 517.665 594.976C517.985 594.976 518.113 595.168 517.985 595.68C516.705 602.016 514.593 605.024 510.241 605.024C506.849 605.024 503.777 602.464 504.929 597.664C505.185 596.512 504.161 596.448 503.649 597.472C501.089 603.04 499.425 605.024 495.521 605.024ZM494.561 595.168C494.561 598.048 495.777 600.096 498.401 600.096C501.793 600.096 504.993 595.936 504.993 590.304V586.656C504.993 584.992 503.905 584.352 502.433 584.992C497.313 587.616 494.561 591.072 494.561 595.168ZM524.814 604C522.51 604 519.694 604.32 517.07 604.32C516.366 604.32 516.11 604.192 516.11 603.744C516.11 603.36 516.366 603.232 517.006 603.232C521.23 603.232 523.342 602.208 523.342 596.704L523.406 576.992C523.406 573.088 522.446 572.768 521.358 572.768C519.694 572.768 517.838 573.088 517.198 573.216C516.622 573.216 516.43 573.088 516.43 572.704C516.43 572.384 516.686 572.256 517.326 572.128C521.102 571.488 527.054 568.928 528.974 568.928H529.038C529.87 568.928 530.062 569.568 530.062 570.08C530.062 570.912 529.87 572.192 529.742 573.472C529.678 575.136 530.318 575.392 531.342 574.112C534.222 570.848 537.23 568.928 540.302 568.928C544.846 568.928 547.278 572.192 547.278 578.208V596.704C547.278 602.208 549.902 603.232 553.614 603.232C554.318 603.232 554.51 603.36 554.51 603.744C554.51 604.128 554.318 604.32 553.614 604.32C551.374 604.32 548.11 604 545.87 604H542.478C540.11 604 538.254 604.128 536.334 604.192H536.014C535.822 604.192 535.694 604.192 535.502 604.192H535.054C534.99 604.192 534.926 604.192 534.798 604.192C532.558 604.128 530.638 604 528.206 604H524.814ZM529.55 595.936C529.55 600.736 530.638 603.168 535.502 603.296C540.046 603.168 541.134 600.8 541.134 595.936V578.208C541.134 574.624 539.79 572.96 537.038 572.96C533.774 572.96 529.55 574.944 529.55 579.296V595.936ZM566.3 596.704C566.3 602.208 568.732 603.232 572.316 603.232C572.892 603.232 573.148 603.36 573.148 603.744C573.148 604.128 572.892 604.32 572.252 604.32C570.14 604.32 567.132 604 564.956 604H561.564C559.26 604 556.444 604.32 553.82 604.32C553.116 604.32 552.86 604.192 552.86 603.744C552.86 603.36 553.116 603.232 553.756 603.232C557.98 603.232 560.092 602.208 560.092 596.704L560.156 576.928C560.156 573.024 559.196 572.704 558.108 572.704C556.444 572.704 554.588 573.088 553.948 573.152C553.372 573.216 553.18 573.088 553.18 572.64C553.18 572.32 553.436 572.192 554.076 572.064C557.852 571.424 563.804 568.864 565.724 568.864C566.364 568.864 566.812 569.312 566.812 570.272C566.812 574.88 566.3 581.216 566.3 586.848V596.704ZM558.428 558.752C558.428 556.384 560.028 554.848 562.396 554.848C564.828 554.848 566.492 556.384 566.492 558.752C566.492 560.992 564.828 562.528 562.396 562.528C560.028 562.528 558.428 560.992 558.428 558.752ZM594.649 604C592.473 604 588.505 604.32 585.753 604.32C585.113 604.32 584.857 604.192 584.857 603.744C584.857 603.36 585.113 603.232 585.689 603.232C589.913 603.232 592.281 602.208 592.281 596.704V560.096C592.345 554.592 589.913 553.568 585.689 553.568C585.113 553.568 584.857 553.44 584.857 553.056C584.921 552.608 585.113 552.48 585.753 552.48C588.505 552.48 592.537 552.8 594.649 552.8H604.313C617.817 552.8 629.465 560.8 629.465 578.656C629.465 595.808 618.649 604 604.569 604H594.649ZM599.513 598.24C599.513 602.336 600.985 602.976 603.801 602.976C616.473 602.976 621.913 591.712 621.913 579.104C621.913 564.448 613.913 553.824 603.865 553.824C600.857 553.824 599.513 554.336 599.513 557.92V598.24ZM643.471 605.024C638.607 605.024 636.495 601.696 636.495 596.256V576.928C636.495 573.024 635.535 572.704 634.447 572.704C632.783 572.704 630.991 573.088 630.287 573.152C629.775 573.216 629.519 573.088 629.519 572.64C629.519 572.32 629.775 572.192 630.415 572.064C634.191 571.424 640.143 568.864 642.063 568.864H642.127C642.831 568.864 643.215 569.504 643.215 570.144C643.215 573.728 642.703 578.4 642.703 582.496V595.168C642.703 598.944 643.919 600.736 646.671 600.736C650.447 600.736 653.903 596.576 653.903 590.496V576.224C653.903 572.768 653.007 572.704 652.047 572.704C650.639 572.704 648.911 573.088 648.335 573.152C647.887 573.216 647.695 573.088 647.695 572.64C647.695 572.32 647.887 572.192 648.463 572.064C651.599 571.424 656.655 568.864 659.471 568.864C660.175 568.864 660.559 569.312 660.559 570.144C660.559 573.728 660.111 578.4 660.111 582.496V596.704C660.111 602.208 662.095 603.232 666.063 603.232C666.639 603.232 666.895 603.36 666.895 603.808C666.895 604.192 666.639 604.32 665.999 604.32C663.759 604.32 661.711 604.128 659.279 604.128C656.591 604.128 654.479 605.024 653.519 605.024C651.663 605.024 653.647 601.504 653.647 598.304C653.647 597.28 652.751 597.28 652.239 598.112C649.679 602.336 646.927 605.024 643.471 605.024ZM680.622 605.024C676.398 605.024 668.526 603.68 668.846 601.952C669.23 600.224 669.742 597.728 669.742 593.824V558.944C669.742 555.04 668.846 554.72 667.694 554.72C666.094 554.72 664.238 555.04 663.534 555.104C663.022 555.168 662.83 555.04 662.83 554.656C662.83 554.336 663.022 554.144 663.726 554.016C667.438 553.376 673.39 550.88 675.374 550.88C676.078 550.88 676.462 551.328 676.462 552.032C676.462 557.6 676.014 563.296 676.014 568.864V575.776C676.014 576.8 676.846 576.864 677.358 576.032C679.598 572.256 682.35 568.928 685.742 568.928C691.31 568.928 695.086 574.944 695.086 585.504C695.086 597.472 690.606 605.024 680.622 605.024ZM676.014 594.72C676.014 600.48 678.254 603.488 681.71 603.488C685.998 603.488 688.494 598.944 688.494 587.36C688.494 578.464 686.19 573.536 682.286 573.536C679.406 573.536 676.014 576.992 676.014 583.584V594.72ZM705.084 605.024C700.732 605.024 697.98 601.888 697.98 597.472C697.98 591.072 704.956 587.296 711.932 584.224C713.468 583.52 714.556 581.92 714.556 580.256V579.232C714.556 572.256 712.38 570.272 709.372 570.272C706.748 570.272 705.34 571.616 705.34 574.176C705.34 576.096 706.3 577.248 706.3 579.296C706.3 581.088 705.148 582.368 703.1 582.368C700.796 582.368 699.452 580.384 699.452 578.016C699.452 572.896 704.188 568.864 710.652 568.864C716.86 568.864 721.02 572.128 721.02 579.296C721.02 585.568 720.7 591.904 720.7 598.176C720.7 600.928 721.66 601.696 722.812 601.696C723.836 601.696 725.564 600.416 726.78 595.616C726.844 595.104 726.972 594.976 727.228 594.976C727.548 594.976 727.676 595.168 727.548 595.68C726.268 602.016 724.156 605.024 719.804 605.024C716.412 605.024 713.34 602.464 714.492 597.664C714.748 596.512 713.724 596.448 713.212 597.472C710.652 603.04 708.988 605.024 705.084 605.024ZM704.124 595.168C704.124 598.048 705.34 600.096 707.964 600.096C711.356 600.096 714.556 595.936 714.556 590.304V586.656C714.556 584.992 713.468 584.352 711.996 584.992C706.876 587.616 704.124 591.072 704.124 595.168ZM739.113 596.704C739.113 602.208 741.545 603.232 745.128 603.232C745.705 603.232 745.961 603.36 745.961 603.744C745.961 604.128 745.705 604.32 745.065 604.32C742.953 604.32 739.945 604 737.769 604H734.377C732.073 604 729.257 604.32 726.633 604.32C725.928 604.32 725.672 604.192 725.672 603.744C725.672 603.36 725.928 603.232 726.569 603.232C730.793 603.232 732.905 602.208 732.905 596.704L732.969 576.928C732.969 573.024 732.009 572.704 730.921 572.704C729.257 572.704 727.401 573.088 726.761 573.152C726.184 573.216 725.992 573.088 725.992 572.64C725.992 572.32 726.248 572.192 726.889 572.064C730.665 571.424 736.617 568.864 738.537 568.864C739.177 568.864 739.625 569.312 739.625 570.272C739.625 574.88 739.113 581.216 739.113 586.848V596.704ZM731.241 558.752C731.241 556.384 732.841 554.848 735.209 554.848C737.641 554.848 739.305 556.384 739.305 558.752C739.305 560.992 737.641 562.528 735.209 562.528C732.841 562.528 731.241 560.992 731.241 558.752ZM760.678 579.616C760.678 563.04 769.958 551.776 783.142 551.776C787.622 551.776 790.246 552.48 791.846 552.48C793.958 552.48 794.406 551.968 795.046 551.968C795.43 551.968 795.622 552.096 795.622 552.928C795.558 558.624 796.134 565.216 796.518 569.44C796.582 570.08 796.454 570.464 796.069 570.464C795.686 570.464 795.558 570.144 795.43 569.504C793.126 558.24 790.63 552.992 783.142 552.992C774.246 552.992 768.422 563.296 768.422 577.376C768.422 591.328 774.438 601.376 783.462 601.376C791.462 601.376 796.582 592.736 797.862 583.008C797.99 582.24 798.054 581.92 798.438 581.92C798.822 581.92 798.95 582.24 798.822 583.008C797.67 594.016 792.229 605.024 780.774 605.024C768.294 605.024 760.678 594.08 760.678 579.616ZM809.146 605.024C804.794 605.024 802.042 601.888 802.042 597.472C802.042 591.072 809.018 587.296 815.994 584.224C817.53 583.52 818.618 581.92 818.618 580.256V579.232C818.618 572.256 816.442 570.272 813.434 570.272C810.81 570.272 809.402 571.616 809.402 574.176C809.402 576.096 810.362 577.248 810.362 579.296C810.362 581.088 809.21 582.368 807.162 582.368C804.858 582.368 803.514 580.384 803.514 578.016C803.514 572.896 808.25 568.864 814.714 568.864C820.922 568.864 825.082 572.128 825.082 579.296C825.082 585.568 824.762 591.904 824.762 598.176C824.762 600.928 825.722 601.696 826.874 601.696C827.898 601.696 829.626 600.416 830.842 595.616C830.906 595.104 831.034 594.976 831.29 594.976C831.61 594.976 831.738 595.168 831.61 595.68C830.33 602.016 828.218 605.024 823.866 605.024C820.474 605.024 817.402 602.464 818.554 597.664C818.81 596.512 817.786 596.448 817.274 597.472C814.714 603.04 813.05 605.024 809.146 605.024ZM808.186 595.168C808.186 598.048 809.402 600.096 812.026 600.096C815.418 600.096 818.618 595.936 818.618 590.304V586.656C818.618 584.992 817.53 584.352 816.058 584.992C810.938 587.616 808.186 591.072 808.186 595.168ZM838.439 604C836.135 604 833.319 604.32 830.695 604.32C829.991 604.32 829.735 604.192 829.735 603.744C829.735 603.36 829.991 603.232 830.631 603.232C834.855 603.232 836.967 602.208 836.967 596.704L837.031 576.928C837.031 573.024 836.071 572.704 834.983 572.704C833.319 572.704 831.463 573.088 830.823 573.152C830.247 573.216 830.055 573.088 830.055 572.64C830.055 572.32 830.311 572.192 830.951 572.064C834.727 571.424 840.679 568.864 842.599 568.864C843.431 568.864 843.687 569.44 843.687 570.08C843.687 570.976 843.559 571.936 843.495 572.896C843.303 574.496 843.943 574.752 845.031 573.536C847.783 570.464 850.471 568.928 852.711 568.928C855.335 568.928 857.127 570.4 858.535 573.024C859.175 574.56 860.391 574.688 861.479 573.472C864.423 570.272 866.983 568.928 869.095 568.928C873.767 568.928 876.135 572.192 876.135 578.208V596.704C876.135 602.208 878.695 603.232 882.471 603.232C883.175 603.232 883.367 603.36 883.367 603.744C883.367 604.128 883.175 604.32 882.471 604.32C880.231 604.32 876.967 604 874.727 604H871.015C868.775 604 867.047 604.192 865.063 604.192C864.999 604.192 864.999 604.192 864.999 604.192C862.695 604.192 860.967 604 858.663 604H854.631C852.391 604 850.663 604.192 848.679 604.192H848.551C848.487 604.192 848.487 604.192 848.423 604.192C846.119 604.192 844.391 604 842.087 604H838.439ZM843.175 595.936C843.175 600.864 844.135 603.296 848.423 603.296H848.551C848.615 603.296 848.615 603.296 848.679 603.296C852.647 603.296 853.543 600.992 853.543 595.936V578.208C853.543 574.624 852.327 572.96 849.447 572.96C847.975 572.96 843.175 573.984 843.175 578.656V595.936ZM859.751 595.936C859.751 600.864 860.711 603.296 864.999 603.296H865.063C869.031 603.296 869.927 600.992 869.927 595.936V578.208C869.927 574.624 868.711 572.96 865.831 572.96C863.975 572.96 859.751 574.112 859.751 577.952V595.936ZM887.929 618.08C885.817 618.08 883.129 618.4 880.633 618.4C880.056 618.4 879.8 618.272 879.8 617.824C879.8 617.44 880.056 617.312 880.633 617.312C884.536 617.312 886.585 616.288 886.585 610.784V576.992C886.585 573.088 885.689 572.768 884.536 572.768C882.937 572.768 881.081 573.088 880.441 573.216C879.864 573.216 879.672 573.088 879.672 572.704C879.672 572.384 879.864 572.256 880.569 572.128C884.345 571.488 890.297 568.928 892.217 568.928C892.985 568.928 893.305 569.44 893.305 570.08C893.305 571.104 893.113 572.384 892.985 573.856C892.857 575.456 893.433 575.648 894.329 574.24C896.953 570.464 899.449 568.928 902.073 568.928C908.217 568.928 911.737 575.776 911.737 585.824C911.737 596.704 907.257 605.152 900.153 605.152C897.017 605.152 894.905 603.296 893.689 603.296C892.921 603.296 892.793 603.808 892.793 604.768V610.784C892.793 616.288 895.865 617.312 900.345 617.312C901.113 617.312 901.369 617.44 901.369 617.824C901.369 618.208 901.113 618.4 900.281 618.4C897.657 618.4 893.817 618.08 891.065 618.08H887.929ZM892.793 592.096C892.793 598.944 895.225 603.424 898.745 603.424C902.969 603.424 905.145 596.192 905.145 586.912C905.145 579.04 903.417 572.832 898.937 572.832C896.057 572.832 892.793 575.072 892.793 582.816V592.096ZM925.596 605.024C920.732 605.024 918.62 601.696 918.62 596.256V576.928C918.62 573.024 917.66 572.704 916.572 572.704C914.908 572.704 913.116 573.088 912.412 573.152C911.9 573.216 911.644 573.088 911.644 572.64C911.644 572.32 911.9 572.192 912.54 572.064C916.316 571.424 922.268 568.864 924.188 568.864H924.252C924.956 568.864 925.34 569.504 925.34 570.144C925.34 573.728 924.828 578.4 924.828 582.496V595.168C924.828 598.944 926.044 600.736 928.796 600.736C932.572 600.736 936.028 596.576 936.028 590.496V576.224C936.028 572.768 935.132 572.704 934.172 572.704C932.764 572.704 931.036 573.088 930.46 573.152C930.012 573.216 929.82 573.088 929.82 572.64C929.82 572.32 930.012 572.192 930.588 572.064C933.724 571.424 938.78 568.864 941.596 568.864C942.3 568.864 942.684 569.312 942.684 570.144C942.684 573.728 942.236 578.4 942.236 582.496V596.704C942.236 602.208 944.22 603.232 948.188 603.232C948.764 603.232 949.02 603.36 949.02 603.808C949.02 604.192 948.764 604.32 948.124 604.32C945.884 604.32 943.836 604.128 941.404 604.128C938.716 604.128 936.604 605.024 935.644 605.024C933.788 605.024 935.772 601.504 935.772 598.304C935.772 597.28 934.876 597.28 934.364 598.112C931.804 602.336 929.052 605.024 925.596 605.024ZM960.547 605.024C957.219 605.024 955.235 604.32 953.379 604.32C952.227 604.32 951.267 604.704 950.563 604.704C950.179 604.704 949.923 604.512 949.923 603.936C949.923 598.048 948.579 592.288 948.387 590.816C948.259 590.304 948.451 590.048 948.771 590.048C949.091 590.048 949.219 590.24 949.347 590.752C951.395 597.92 953.251 603.68 960.931 603.68C964.131 603.68 965.603 601.76 965.603 599.264C965.603 595.68 963.043 593.056 957.155 588.256C951.651 583.904 949.859 581.344 949.859 577.696C949.859 572.384 953.827 568.928 958.627 568.928C961.251 568.928 962.723 569.568 964.707 569.568C966.115 569.568 966.947 569.184 967.651 569.184C968.035 569.184 968.355 569.376 968.355 569.952C968.291 576.352 968.931 579.552 968.995 581.472C968.995 582.112 968.803 582.304 968.547 582.304C968.291 582.304 968.163 582.112 968.035 581.536C966.627 573.728 963.171 570.272 958.307 570.272C955.747 570.272 954.211 572.256 954.211 574.816C954.211 577.76 956.835 579.936 961.315 583.392C967.075 588 969.699 590.816 969.699 595.68C969.699 602.016 965.475 605.024 960.547 605.024ZM267.24 639.616C267.24 623.04 276.52 611.776 289.704 611.776C294.184 611.776 296.808 612.48 298.408 612.48C300.52 612.48 300.968 611.968 301.608 611.968C301.992 611.968 302.184 612.096 302.184 612.928C302.12 618.624 302.696 625.216 303.08 629.44C303.144 630.08 303.016 630.464 302.632 630.464C302.248 630.464 302.12 630.144 301.992 629.504C299.688 618.24 297.192 612.992 289.704 612.992C280.808 612.992 274.984 623.296 274.984 637.376C274.984 651.328 281 661.376 290.024 661.376C298.024 661.376 303.144 652.736 304.424 643.008C304.552 642.24 304.616 641.92 305 641.92C305.384 641.92 305.512 642.24 305.384 643.008C304.232 654.016 298.792 665.024 287.336 665.024C274.856 665.024 267.24 654.08 267.24 639.616ZM315.709 665.024C311.357 665.024 308.605 661.888 308.605 657.472C308.605 651.072 315.581 647.296 322.557 644.224C324.093 643.52 325.181 641.92 325.181 640.256V639.232C325.181 632.256 323.005 630.272 319.997 630.272C317.373 630.272 315.965 631.616 315.965 634.176C315.965 636.096 316.925 637.248 316.925 639.296C316.925 641.088 315.773 642.368 313.725 642.368C311.421 642.368 310.077 640.384 310.077 638.016C310.077 632.896 314.812 628.864 321.277 628.864C327.485 628.864 331.645 632.128 331.645 639.296C331.645 645.568 331.325 651.904 331.325 658.176C331.325 660.928 332.285 661.696 333.437 661.696C334.461 661.696 336.189 660.416 337.405 655.616C337.469 655.104 337.597 654.976 337.853 654.976C338.173 654.976 338.301 655.168 338.173 655.68C336.893 662.016 334.781 665.024 330.429 665.024C327.037 665.024 323.965 662.464 325.117 657.664C325.373 656.512 324.349 656.448 323.837 657.472C321.277 663.04 319.613 665.024 315.709 665.024ZM314.749 655.168C314.749 658.048 315.965 660.096 318.589 660.096C321.981 660.096 325.181 655.936 325.181 650.304V646.656C325.181 644.992 324.093 644.352 322.621 644.992C317.501 647.616 314.749 651.072 314.749 655.168ZM344.874 664C342.762 664 340.138 664.32 337.642 664.32C337.002 664.32 336.745 664.192 336.745 663.744C336.745 663.36 337.002 663.232 337.578 663.232C341.546 663.232 343.53 662.208 343.594 656.704V636.992C343.594 633.088 342.634 632.768 341.546 632.768C339.882 632.768 338.026 633.088 337.386 633.216C336.809 633.216 336.617 633.088 336.617 632.704C336.617 632.384 336.873 632.256 337.514 632.128C341.29 631.488 347.242 628.928 349.162 628.928C349.994 628.928 350.186 629.568 350.186 630.08C350.186 631.104 349.994 632.576 349.866 634.496C349.738 636.096 350.25 636.224 350.954 634.752C352.938 631.104 355.37 628.928 358.25 628.928C360.618 628.928 362.09 630.208 362.09 632.512C362.09 635.328 360.426 636.672 358.762 636.672C355.753 636.672 356.522 633.728 353.962 633.728C351.978 633.728 349.738 637.12 349.738 640.96V656.704C349.738 662.208 353.385 663.232 358.698 663.232C359.658 663.232 359.978 663.36 359.978 663.744C359.978 664.128 359.658 664.32 358.634 664.32C355.498 664.32 350.954 664 347.754 664H344.874ZM375.762 665.024C368.53 665.024 363.986 658.944 363.986 648C363.986 637.504 369.042 628.928 377.042 628.928C382.994 628.928 387.026 633.664 387.026 638.912C387.026 642.496 386.258 643.648 381.65 643.648H372.754C371.154 643.648 370.066 644.736 370.002 646.208V647.552C370.002 654.976 373.074 660.224 378.385 660.224C381.266 660.224 385.106 658.496 387.41 650.56C387.666 649.92 387.794 649.792 388.05 649.792C388.434 649.792 388.434 650.048 388.306 650.688C386.002 660.672 381.778 665.024 375.762 665.024ZM370.258 640.128C370.194 641.664 371.218 642.816 372.754 642.816H377.106C380.05 642.816 380.818 641.408 380.818 638.72C380.818 634.24 379.474 630.272 376.21 630.272C373.138 630.272 370.898 634.176 370.258 640.128ZM403.199 665.024C395.967 665.024 391.423 658.944 391.423 648C391.423 637.504 396.479 628.928 404.479 628.928C410.431 628.928 414.463 633.664 414.463 638.912C414.463 642.496 413.695 643.648 409.087 643.648H400.191C398.591 643.648 397.503 644.736 397.439 646.208V647.552C397.439 654.976 400.511 660.224 405.823 660.224C408.703 660.224 412.543 658.496 414.847 650.56C415.103 649.92 415.231 649.792 415.487 649.792C415.871 649.792 415.871 650.048 415.743 650.688C413.439 660.672 409.215 665.024 403.199 665.024ZM397.695 640.128C397.631 641.664 398.655 642.816 400.191 642.816H404.543C407.487 642.816 408.255 641.408 408.255 638.72C408.255 634.24 406.911 630.272 403.647 630.272C400.575 630.272 398.335 634.176 397.695 640.128ZM424.311 664C422.199 664 419.575 664.32 417.079 664.32C416.439 664.32 416.183 664.192 416.183 663.744C416.183 663.36 416.439 663.232 417.015 663.232C420.983 663.232 422.967 662.208 423.031 656.704V636.992C423.031 633.088 422.071 632.768 420.983 632.768C419.319 632.768 417.463 633.088 416.823 633.216C416.247 633.216 416.055 633.088 416.055 632.704C416.055 632.384 416.311 632.256 416.951 632.128C420.727 631.488 426.679 628.928 428.599 628.928C429.431 628.928 429.623 629.568 429.623 630.08C429.623 631.104 429.431 632.576 429.303 634.496C429.175 636.096 429.687 636.224 430.391 634.752C432.375 631.104 434.807 628.928 437.687 628.928C440.055 628.928 441.527 630.208 441.527 632.512C441.527 635.328 439.863 636.672 438.199 636.672C435.191 636.672 435.959 633.728 433.399 633.728C431.415 633.728 429.175 637.12 429.175 640.96V656.704C429.175 662.208 432.823 663.232 438.135 663.232C439.095 663.232 439.415 663.36 439.415 663.744C439.415 664.128 439.095 664.32 438.071 664.32C434.935 664.32 430.391 664 427.191 664H424.311ZM472.963 665.024C470.083 665.024 466.819 664.448 465.027 664.448C463.299 664.448 462.019 664.832 461.251 664.832C460.867 664.832 460.611 664.64 460.611 663.936C460.675 659.84 458.819 652.544 458.563 646.464C458.563 646.144 458.755 645.888 459.011 645.888C459.331 645.888 459.587 646.08 459.715 646.528C462.595 659.072 465.347 663.808 474.243 663.808C479.811 663.808 481.731 658.88 481.731 655.168C481.731 648.768 476.227 644.416 470.979 640.448C464.579 635.584 459.203 631.36 459.203 624.384C459.203 616.384 464.707 611.776 471.939 611.776C475.779 611.776 477.891 612.352 479.875 612.352C481.283 612.352 482.499 611.968 483.203 611.968C483.651 611.968 483.907 612.096 483.907 612.928C483.907 617.6 484.739 624.448 484.995 627.84C485.059 628.544 484.931 628.928 484.611 628.928C484.227 628.928 484.035 628.608 483.907 627.968C481.859 616.64 479.491 612.992 471.363 612.992C466.435 612.992 464.131 616.768 464.131 620.864C464.131 626.112 468.803 629.888 474.755 634.368C481.411 639.296 486.659 643.712 486.659 651.584C486.659 659.648 481.219 665.024 472.963 665.024ZM502.949 665.024C495.717 665.024 491.173 658.944 491.173 648C491.173 637.504 496.229 628.928 504.229 628.928C510.181 628.928 514.213 633.664 514.213 638.912C514.213 642.496 513.445 643.648 508.837 643.648H499.941C498.341 643.648 497.253 644.736 497.189 646.208V647.552C497.189 654.976 500.261 660.224 505.573 660.224C508.453 660.224 512.293 658.496 514.597 650.56C514.853 649.92 514.981 649.792 515.237 649.792C515.621 649.792 515.621 650.048 515.493 650.688C513.189 660.672 508.965 665.024 502.949 665.024ZM497.445 640.128C497.381 641.664 498.405 642.816 499.941 642.816H504.293C507.237 642.816 508.005 641.408 508.005 638.72C508.005 634.24 506.661 630.272 503.397 630.272C500.325 630.272 498.085 634.176 497.445 640.128ZM524.061 664C521.949 664 519.325 664.32 516.829 664.32C516.189 664.32 515.933 664.192 515.933 663.744C515.933 663.36 516.189 663.232 516.765 663.232C520.733 663.232 522.717 662.208 522.781 656.704V636.992C522.781 633.088 521.821 632.768 520.733 632.768C519.069 632.768 517.213 633.088 516.573 633.216C515.997 633.216 515.805 633.088 515.805 632.704C515.805 632.384 516.061 632.256 516.701 632.128C520.477 631.488 526.429 628.928 528.349 628.928C529.181 628.928 529.373 629.568 529.373 630.08C529.373 631.104 529.181 632.576 529.053 634.496C528.925 636.096 529.437 636.224 530.141 634.752C532.125 631.104 534.557 628.928 537.437 628.928C539.805 628.928 541.277 630.208 541.277 632.512C541.277 635.328 539.613 636.672 537.949 636.672C534.941 636.672 535.709 633.728 533.149 633.728C531.165 633.728 528.925 637.12 528.925 640.96V656.704C528.925 662.208 532.573 663.232 537.885 663.232C538.845 663.232 539.165 663.36 539.165 663.744C539.165 664.128 538.845 664.32 537.821 664.32C534.685 664.32 530.141 664 526.941 664H524.061ZM567.593 637.824C569.001 633.088 568.489 630.784 561.769 630.784H561.641C561.577 630.784 561.513 630.784 561.449 630.784C555.305 630.784 554.729 632.96 556.137 637.824L561.065 654.72C561.513 656.256 562.153 656.256 562.601 654.72L567.593 637.824ZM541.864 630.336C541.864 629.952 542.056 629.76 542.569 629.76C544.169 629.76 546.473 630.08 548.137 630.08H552.169C555.753 630.08 558.377 629.888 561.449 629.888H561.641C561.641 629.888 561.705 629.888 561.769 629.888C564.969 629.888 567.593 630.08 570.665 630.08C572.265 630.016 574.121 629.76 575.529 629.76C575.977 629.76 576.169 629.888 576.169 630.336C576.169 630.72 575.977 630.848 575.593 630.848C572.649 630.848 570.473 631.808 568.873 637.056L560.937 663.936C560.809 664.448 560.361 664.768 559.785 664.768H558.633C558.121 664.768 557.673 664.448 557.481 663.936L549.225 637.056C547.625 631.808 545.257 630.848 542.505 630.848C542.056 630.848 541.864 630.72 541.864 630.336ZM587.238 656.704C587.238 662.208 589.67 663.232 593.253 663.232C593.83 663.232 594.086 663.36 594.086 663.744C594.086 664.128 593.83 664.32 593.19 664.32C591.078 664.32 588.07 664 585.894 664H582.502C580.198 664 577.382 664.32 574.758 664.32C574.053 664.32 573.797 664.192 573.797 663.744C573.797 663.36 574.053 663.232 574.694 663.232C578.918 663.232 581.03 662.208 581.03 656.704L581.094 636.928C581.094 633.024 580.134 632.704 579.046 632.704C577.382 632.704 575.526 633.088 574.886 633.152C574.309 633.216 574.117 633.088 574.117 632.64C574.117 632.32 574.373 632.192 575.014 632.064C578.79 631.424 584.742 628.864 586.662 628.864C587.302 628.864 587.75 629.312 587.75 630.272C587.75 634.88 587.238 641.216 587.238 646.848V656.704ZM579.366 618.752C579.366 616.384 580.966 614.848 583.334 614.848C585.766 614.848 587.43 616.384 587.43 618.752C587.43 620.992 585.766 622.528 583.334 622.528C580.966 622.528 579.366 620.992 579.366 618.752ZM606.763 665.024C599.339 665.024 594.923 657.856 594.923 647.616C594.923 636.992 599.595 628.928 608.299 628.928C613.227 628.928 617.259 632.192 617.259 637.184C617.259 639.744 615.723 641.536 613.547 641.536C611.691 641.536 610.475 640.576 610.475 638.848C610.475 637.312 611.755 636.48 611.755 634.368C611.755 632 610.027 630.336 607.787 630.336C603.179 630.336 601.195 638.4 601.195 644.8C601.195 653.504 604.075 660.096 609.835 660.096C612.587 660.096 615.403 657.728 617.323 652.48C617.515 651.904 617.643 651.776 617.963 651.776C618.219 651.776 618.283 652.032 618.091 652.672C616.363 660.032 612.715 665.024 606.763 665.024ZM632.699 665.024C625.467 665.024 620.923 658.944 620.923 648C620.923 637.504 625.979 628.928 633.979 628.928C639.931 628.928 643.963 633.664 643.963 638.912C643.963 642.496 643.195 643.648 638.587 643.648H629.691C628.091 643.648 627.003 644.736 626.939 646.208V647.552C626.939 654.976 630.011 660.224 635.323 660.224C638.203 660.224 642.043 658.496 644.347 650.56C644.603 649.92 644.731 649.792 644.987 649.792C645.371 649.792 645.371 650.048 645.243 650.688C642.939 660.672 638.715 665.024 632.699 665.024ZM627.195 640.128C627.131 641.664 628.155 642.816 629.691 642.816H634.043C636.987 642.816 637.755 641.408 637.755 638.72C637.755 634.24 636.411 630.272 633.147 630.272C630.075 630.272 627.835 634.176 627.195 640.128ZM659.797 665.024C656.469 665.024 654.485 664.32 652.629 664.32C651.477 664.32 650.517 664.704 649.813 664.704C649.429 664.704 649.173 664.512 649.173 663.936C649.173 658.048 647.829 652.288 647.637 650.816C647.509 650.304 647.701 650.048 648.021 650.048C648.341 650.048 648.469 650.24 648.597 650.752C650.645 657.92 652.501 663.68 660.181 663.68C663.381 663.68 664.853 661.76 664.853 659.264C664.853 655.68 662.293 653.056 656.405 648.256C650.901 643.904 649.109 641.344 649.109 637.696C649.109 632.384 653.077 628.928 657.877 628.928C660.501 628.928 661.973 629.568 663.957 629.568C665.365 629.568 666.197 629.184 666.901 629.184C667.285 629.184 667.605 629.376 667.605 629.952C667.541 636.352 668.181 639.552 668.245 641.472C668.245 642.112 668.053 642.304 667.797 642.304C667.541 642.304 667.413 642.112 667.285 641.536C665.877 633.728 662.421 630.272 657.557 630.272C654.997 630.272 653.461 632.256 653.461 634.816C653.461 637.76 656.085 639.936 660.565 643.392C666.325 648 668.949 650.816 668.949 655.68C668.949 662.016 664.725 665.024 659.797 665.024ZM717.984 612.48C719.136 612.48 719.456 613.184 719.456 614.208C719.456 616 719.2 618.752 719.328 621.12C719.52 623.232 719.776 624.96 720.16 627.072C720.288 627.776 720.16 628.16 719.776 628.16C719.392 628.16 719.2 627.84 719.072 627.2C716.768 617.024 714.72 613.76 708.704 613.76H701.216C698.784 613.76 697.888 615.488 697.888 617.216V635.328C697.888 636.928 699.04 638.08 700.704 638.08H706.592C711.52 638.144 712.416 635.712 712.48 631.552C712.48 630.912 712.608 630.72 712.928 630.72C713.312 630.72 713.44 630.912 713.44 631.552C713.44 633.728 713.184 636.096 713.12 638.592C713.184 640.896 713.44 643.52 713.44 645.632C713.44 646.272 713.312 646.528 712.928 646.528C712.544 646.528 712.416 646.272 712.416 645.696C712.416 641.472 711.52 639.104 706.592 639.104H700.704C699.04 639.104 697.888 640.256 697.888 641.856V656.704C697.888 662.208 700.448 663.232 704.992 663.232C705.632 663.232 705.824 663.36 705.824 663.744C705.824 664.192 705.632 664.32 704.928 664.32C701.984 664.32 697.632 664 695.392 664H693.024C690.848 664 686.88 664.32 684.128 664.32C683.488 664.32 683.232 664.192 683.232 663.744C683.232 663.36 683.488 663.232 684.064 663.232C688.288 663.232 690.656 662.208 690.656 656.704V620.096C690.72 614.592 688.288 613.568 684.064 613.568C683.488 613.568 683.232 613.44 683.232 613.056C683.296 612.608 683.488 612.48 684.128 612.48C686.88 612.48 690.912 612.8 693.024 612.8H712.608C715.296 612.8 716.768 612.48 717.984 612.48ZM713.736 663.744C713.736 663.36 713.928 663.232 714.441 663.232C718.089 663.232 720.777 662.272 722.505 657.088L737.161 612.352C737.225 612.032 737.545 611.776 737.929 611.776H739.017C739.401 611.776 739.721 612.032 739.849 612.352L754.633 657.088C756.361 662.272 758.729 663.232 761.929 663.232C762.377 663.232 762.569 663.36 762.569 663.744C762.569 664.128 762.377 664.32 761.929 664.32C759.817 664.32 756.745 664 755.145 664H751.944C749.576 664 745.097 664.32 742.025 664.32C741.321 664.32 741.065 664.192 741.065 663.744C741.065 663.36 741.321 663.232 742.025 663.232C746.632 663.232 748.809 662.272 747.208 657.024L744.841 649.472C744.329 647.872 742.857 646.784 741.193 646.784H729.673C728.009 646.784 726.537 647.872 726.025 649.472L723.593 657.088C721.865 662.272 723.977 663.232 728.585 663.232C729.225 663.232 729.481 663.36 729.481 663.744C729.481 664.128 729.225 664.32 728.521 664.32C726.153 664.32 723.465 664 720.777 664C718.729 664 716.424 664.32 714.505 664.32C713.928 664.32 713.736 664.192 713.736 663.744ZM728.137 643.136C727.625 644.736 728.457 645.824 730.121 645.824H740.873C742.473 645.824 743.305 644.736 742.793 643.136L736.393 622.784C735.945 621.248 735.241 621.248 734.729 622.784L728.137 643.136ZM796.939 676.864C790.475 676.864 785.035 669.888 778.315 669.888C774.475 669.888 771.019 672.96 768.523 672.96C767.115 672.96 766.219 671.68 766.219 670.528C766.219 669.44 766.923 668.608 768.587 668.416C772.875 668.16 778.315 667.456 780.363 666.496C782.155 666.112 782.539 665.472 782.539 665.28C782.539 665.088 782.155 665.024 780.939 664.96C769.291 664.512 761.803 652.992 761.803 638.464C761.803 623.488 769.739 611.904 781.643 611.904C793.739 611.904 801.675 623.616 801.675 638.464C801.675 649.856 797.131 659.136 789.643 663.232C786.699 664.896 783.499 666.368 780.555 667.584C779.019 668.16 779.083 668.48 780.747 668.48H782.091C788.491 668.48 792.331 671.296 797.387 671.296C800.203 671.296 803.595 670.08 805.003 667.328C805.259 666.752 805.451 666.432 805.835 666.432C806.283 666.432 806.155 667.008 805.963 667.648C804.555 672.768 801.483 676.864 796.939 676.864ZM769.163 632.32C769.163 645.952 773.963 663.68 783.243 663.68C790.923 663.68 794.315 654.4 794.315 644.48C794.315 630.976 789.515 613.248 780.299 613.248C772.683 613.248 769.163 622.464 769.163 632.32ZM808.594 619.648C806.161 619.648 804.882 617.792 804.882 615.872C804.882 613.632 806.482 611.84 809.234 611.84C812.05 611.84 814.162 614.08 814.162 617.536C814.162 621.184 812.05 625.728 807.698 627.52C806.226 628.032 805.394 627.008 805.394 626.112C805.394 625.664 805.586 625.344 806.034 625.088C809.426 623.68 813.01 621.504 813.01 619.008C813.01 618.24 812.69 617.728 812.242 617.728C811.538 617.728 811.154 619.648 808.594 619.648ZM827.235 665.024C823.907 665.024 821.923 664.32 820.067 664.32C818.915 664.32 817.955 664.704 817.251 664.704C816.867 664.704 816.611 664.512 816.611 663.936C816.611 658.048 815.267 652.288 815.075 650.816C814.947 650.304 815.139 650.048 815.459 650.048C815.779 650.048 815.907 650.24 816.035 650.752C818.083 657.92 819.939 663.68 827.619 663.68C830.819 663.68 832.291 661.76 832.291 659.264C832.291 655.68 829.731 653.056 823.843 648.256C818.339 643.904 816.547 641.344 816.547 637.696C816.547 632.384 820.515 628.928 825.315 628.928C827.939 628.928 829.411 629.568 831.395 629.568C832.803 629.568 833.635 629.184 834.339 629.184C834.723 629.184 835.043 629.376 835.043 629.952C834.979 636.352 835.619 639.552 835.683 641.472C835.683 642.112 835.491 642.304 835.235 642.304C834.979 642.304 834.851 642.112 834.723 641.536C833.315 633.728 829.859 630.272 824.995 630.272C822.435 630.272 820.899 632.256 820.899 634.816C820.899 637.76 823.523 639.936 828.003 643.392C833.763 648 836.387 650.816 836.387 655.68C836.387 662.016 832.163 665.024 827.235 665.024Z" fill="black"/>
<path d="M417.656 1043.53C400.632 1043.53 389.944 1033.42 389.944 1017.61C389.944 997.768 405.24 981.128 424.056 981.128C438.712 981.128 447.224 990.984 447.224 1004.04C447.224 1017.86 436.408 1029.7 427.448 1029.7C423.544 1029.7 421.624 1027.34 421.624 1023.82C421.624 1022.34 421.944 1020.81 422.648 1018.7C422.904 1018.06 422.712 1017.61 422.264 1017.61C421.816 1017.61 421.496 1017.93 421.176 1018.63C418.296 1024.9 414.904 1029.7 410.488 1029.7C406.072 1029.7 404.024 1026.18 404.024 1021.13C404.024 1009.99 414.008 994.44 422.648 994.44C425.784 994.44 427.32 996.296 427.832 999.816C427.96 1001.48 428.408 1001.54 428.984 1000.01L429.496 998.6C429.88 997.512 430.328 997.128 431.352 997.128C433.464 997.128 434.68 994.056 435.96 994.056C436.536 994.056 436.856 994.44 436.408 995.592C434.168 1000.58 431.928 1005.64 430.136 1010.57C427.064 1019.4 426.936 1021.7 426.936 1023.37C426.936 1025.48 428.024 1026.76 430.776 1026.76C437.368 1026.76 444.536 1016.33 444.536 1004.17C444.536 992.392 437.048 982.216 423.544 982.216C405.368 982.216 393.208 999.752 393.208 1017.99C393.208 1032.84 403.064 1042.25 419.512 1042.25C432.312 1042.25 442.168 1033.99 447.736 1021.83C448.696 1019.91 451.384 1019.91 450.232 1022.54C444.984 1035.08 432.888 1043.53 417.656 1043.53ZM409.976 1020.74C409.976 1023.3 410.872 1024.9 412.664 1024.9C416.888 1024.9 421.88 1017.74 425.016 1008.14C425.656 1006.09 426.232 1003.59 426.232 1001.93C426.232 998.92 425.336 997 423.288 997C417.208 997 409.976 1010.89 409.976 1020.74ZM476.124 1030.02C463.772 1030.02 459.164 1022.22 459.164 1011.91V985.096C459.228 979.592 456.796 978.568 452.572 978.568C451.995 978.568 451.739 978.44 451.739 978.056C451.803 977.608 451.995 977.48 452.636 977.48C455.388 977.48 459.42 977.8 461.532 977.8H464.092C466.204 977.8 470.236 977.48 472.988 977.48C473.564 977.48 473.82 977.608 473.82 978.056C473.82 978.44 473.564 978.568 472.988 978.568C468.828 978.568 466.396 979.592 466.396 985.096V1011.91C466.396 1022.28 470.556 1026.76 478.556 1026.76C485.212 1026.76 490.396 1022.6 490.396 1011.72V985.096C490.46 979.592 488.028 978.568 483.804 978.568C483.228 978.568 482.972 978.44 482.972 978.056C483.036 977.608 483.228 977.48 483.868 977.48C485.979 977.48 488.796 977.672 490.972 977.736C493.148 977.672 495.964 977.48 498.076 977.48C498.716 977.48 498.908 977.608 498.908 978.056C498.908 978.44 498.716 978.568 498.076 978.568C493.916 978.568 491.484 979.592 491.484 985.096V1011.72C491.484 1021.13 488.668 1030.02 476.124 1030.02ZM503.814 1029C501.51 1029 498.694 1029.32 496.07 1029.32C495.366 1029.32 495.11 1029.19 495.11 1028.74C495.11 1028.36 495.366 1028.23 496.006 1028.23C500.23 1028.23 502.342 1027.21 502.342 1021.7L502.406 1001.99C502.406 998.088 501.446 997.768 500.358 997.768C498.694 997.768 496.838 998.088 496.198 998.216C495.622 998.216 495.43 998.088 495.43 997.704C495.43 997.384 495.686 997.256 496.326 997.128C500.102 996.488 506.054 993.928 507.974 993.928H508.038C508.87 993.928 509.062 994.568 509.062 995.08C509.062 995.912 508.87 997.192 508.742 998.472C508.678 1000.14 509.318 1000.39 510.342 999.112C513.222 995.848 516.23 993.928 519.302 993.928C523.846 993.928 526.278 997.192 526.278 1003.21V1021.7C526.278 1027.21 528.902 1028.23 532.614 1028.23C533.318 1028.23 533.51 1028.36 533.51 1028.74C533.51 1029.13 533.318 1029.32 532.614 1029.32C530.374 1029.32 527.11 1029 524.87 1029H521.478C519.11 1029 517.254 1029.13 515.334 1029.19H515.014C514.822 1029.19 514.694 1029.19 514.502 1029.19H514.054C513.99 1029.19 513.926 1029.19 513.798 1029.19C511.558 1029.13 509.638 1029 507.206 1029H503.814ZM508.55 1020.94C508.55 1025.74 509.638 1028.17 514.502 1028.3C519.046 1028.17 520.134 1025.8 520.134 1020.94V1003.21C520.134 999.624 518.79 997.96 516.038 997.96C512.774 997.96 508.55 999.944 508.55 1004.3V1020.94ZM545.3 1021.7C545.3 1027.21 547.732 1028.23 551.316 1028.23C551.892 1028.23 552.148 1028.36 552.148 1028.74C552.148 1029.13 551.892 1029.32 551.252 1029.32C549.14 1029.32 546.132 1029 543.956 1029H540.564C538.26 1029 535.444 1029.32 532.82 1029.32C532.116 1029.32 531.86 1029.19 531.86 1028.74C531.86 1028.36 532.116 1028.23 532.756 1028.23C536.98 1028.23 539.092 1027.21 539.092 1021.7L539.156 1001.93C539.156 998.024 538.196 997.704 537.108 997.704C535.444 997.704 533.588 998.088 532.948 998.152C532.372 998.216 532.18 998.088 532.18 997.64C532.18 997.32 532.436 997.192 533.076 997.064C536.852 996.424 542.804 993.864 544.724 993.864C545.364 993.864 545.812 994.312 545.812 995.272C545.812 999.88 545.3 1006.22 545.3 1011.85V1021.7ZM537.428 983.752C537.428 981.384 539.028 979.848 541.396 979.848C543.828 979.848 545.492 981.384 545.492 983.752C545.492 985.992 543.828 987.528 541.396 987.528C539.028 987.528 537.428 985.992 537.428 983.752ZM560.337 1029C558.161 1029 554.193 1029.32 551.441 1029.32C550.8 1029.32 550.544 1029.19 550.544 1028.74C550.544 1028.36 550.8 1028.23 551.377 1028.23C555.601 1028.23 557.969 1027.21 557.969 1021.7V985.096C558.033 979.592 555.601 978.568 551.377 978.568C550.8 978.568 550.544 978.44 550.544 978.056C550.608 977.608 550.8 977.48 551.441 977.48C554.193 977.48 558.225 977.8 560.337 977.8H570.001C583.505 977.8 595.153 985.8 595.153 1003.66C595.153 1020.81 584.337 1029 570.257 1029H560.337ZM565.201 1023.24C565.201 1027.34 566.673 1027.98 569.489 1027.98C582.161 1027.98 587.601 1016.71 587.601 1004.1C587.601 989.448 579.601 978.824 569.553 978.824C566.545 978.824 565.201 979.336 565.201 982.92V1023.24ZM605.334 1030.02C600.982 1030.02 598.23 1026.89 598.23 1022.47C598.23 1016.07 605.206 1012.3 612.182 1009.22C613.718 1008.52 614.806 1006.92 614.806 1005.26V1004.23C614.806 997.256 612.63 995.272 609.622 995.272C606.998 995.272 605.59 996.616 605.59 999.176C605.59 1001.1 606.55 1002.25 606.55 1004.3C606.55 1006.09 605.398 1007.37 603.35 1007.37C601.046 1007.37 599.702 1005.38 599.702 1003.02C599.702 997.896 604.438 993.864 610.902 993.864C617.11 993.864 621.27 997.128 621.27 1004.3C621.27 1010.57 620.95 1016.9 620.95 1023.18C620.95 1025.93 621.91 1026.7 623.062 1026.7C624.086 1026.7 625.814 1025.42 627.03 1020.62C627.094 1020.1 627.222 1019.98 627.478 1019.98C627.798 1019.98 627.926 1020.17 627.798 1020.68C626.518 1027.02 624.406 1030.02 620.054 1030.02C616.662 1030.02 613.59 1027.46 614.742 1022.66C614.998 1021.51 613.974 1021.45 613.462 1022.47C610.902 1028.04 609.238 1030.02 605.334 1030.02ZM604.374 1020.17C604.374 1023.05 605.59 1025.1 608.214 1025.1C611.606 1025.1 614.806 1020.94 614.806 1015.3V1011.66C614.806 1009.99 613.718 1009.35 612.246 1009.99C607.126 1012.62 604.374 1016.07 604.374 1020.17ZM639.86 1030.02C636.532 1030.02 634.548 1029.32 632.692 1029.32C631.54 1029.32 630.58 1029.7 629.876 1029.7C629.492 1029.7 629.236 1029.51 629.236 1028.94C629.236 1023.05 627.892 1017.29 627.7 1015.82C627.572 1015.3 627.764 1015.05 628.084 1015.05C628.404 1015.05 628.532 1015.24 628.66 1015.75C630.708 1022.92 632.564 1028.68 640.244 1028.68C643.444 1028.68 644.916 1026.76 644.916 1024.26C644.916 1020.68 642.356 1018.06 636.468 1013.26C630.964 1008.9 629.172 1006.34 629.172 1002.7C629.172 997.384 633.14 993.928 637.94 993.928C640.564 993.928 642.036 994.568 644.02 994.568C645.428 994.568 646.26 994.184 646.964 994.184C647.348 994.184 647.668 994.376 647.668 994.952C647.604 1001.35 648.244 1004.55 648.308 1006.47C648.308 1007.11 648.116 1007.3 647.86 1007.3C647.604 1007.3 647.476 1007.11 647.348 1006.54C645.94 998.728 642.484 995.272 637.62 995.272C635.06 995.272 633.524 997.256 633.524 999.816C633.524 1002.76 636.148 1004.94 640.628 1008.39C646.388 1013 649.012 1015.82 649.012 1020.68C649.012 1027.02 644.788 1030.02 639.86 1030.02ZM658.07 1029C655.894 1029 653.206 1029.32 650.646 1029.32C650.006 1029.32 649.75 1029.19 649.75 1028.74C649.75 1028.36 650.006 1028.23 650.582 1028.23C654.614 1028.23 656.726 1027.21 656.726 1021.7V983.944C656.726 980.04 655.766 979.72 654.678 979.72C653.014 979.72 651.222 980.04 650.518 980.104C650.006 980.168 649.75 980.04 649.75 979.656C649.75 979.336 650.006 979.144 650.646 979.016C654.422 978.376 660.31 975.88 662.294 975.88C662.806 975.88 663.382 976.072 663.382 977.032C663.382 981.896 662.934 988.104 662.934 993.864V998.6C662.934 1000.26 663.638 1000.52 664.726 999.24C667.734 995.848 670.486 993.928 673.622 993.928C678.614 993.928 681.11 997.192 681.11 1003.21V1021.7C681.11 1027.21 683.35 1028.23 686.742 1028.23C687.318 1028.23 687.51 1028.36 687.51 1028.74C687.51 1029.13 687.318 1029.32 686.678 1029.32C684.694 1029.32 681.814 1029 679.83 1029H676.246C673.686 1029 671.702 1029.19 669.462 1029.19H669.334C669.27 1029.19 669.206 1029.19 669.078 1029.19H668.886C668.822 1029.19 668.822 1029.19 668.758 1029.19C666.262 1029.19 664.214 1029 661.59 1029H658.07ZM662.23 975.88H662.294H662.23ZM662.934 1020.94C662.934 1025.8 664.022 1028.23 669.078 1028.3C673.814 1028.23 674.902 1025.93 674.902 1020.94V1003.08C674.902 999.56 673.494 997.96 670.358 997.96C667.286 997.96 662.934 1000.07 662.934 1004.3V1020.94Z" fill="black"/>
</svg>
